<svg width="24" height="24" viewBox="0 0 24 24" fill="none" xmlns="http://www.w3.org/2000/svg">
<g opacity="0.16">
<path d="M12.0025 1.92285H11.9975C6.48375 1.92285 2 6.23535 2 11.5382C2 13.6416 2.705 15.5911 3.90375 17.1741L2.6575 20.7462L6.50125 19.5647C8.0825 20.5719 9.96875 21.1536 12.0025 21.1536C17.5162 21.1536 22 16.8399 22 11.5382C22 6.23655 17.5162 1.92285 12.0025 1.92285ZM17.8212 15.501C17.58 16.156 16.6225 16.6993 15.8587 16.8579C15.3362 16.9649 14.6537 17.0503 12.3562 16.1344C9.4175 14.9637 7.525 12.0923 7.3775 11.906C7.23625 11.7197 6.19 10.3856 6.19 9.00578C6.19 7.62598 6.91875 6.9541 7.2125 6.66564C7.45375 6.42886 7.8525 6.32069 8.235 6.32069C8.35875 6.32069 8.47 6.3267 8.57 6.33151C8.86375 6.34352 9.01125 6.36035 9.205 6.80627C9.44625 7.36516 10.0337 8.74497 10.1037 8.88679C10.175 9.02862 10.2463 9.22093 10.1463 9.40723C10.0525 9.59953 9.97 9.68487 9.8225 9.84833C9.675 10.0118 9.535 10.1368 9.3875 10.3123C9.2525 10.4649 9.1 10.6284 9.27 10.9108C9.44 11.1873 10.0275 12.1091 10.8925 12.8495C12.0087 13.8051 12.9137 14.1104 13.2375 14.2402C13.4787 14.3363 13.7662 14.3135 13.9425 14.1332C14.1662 13.9012 14.4425 13.5166 14.7237 13.138C14.9237 12.8664 15.1763 12.8327 15.4413 12.9289C15.7113 13.019 17.14 13.6981 17.4338 13.8387C17.7275 13.9805 17.9212 14.0479 17.9925 14.1668C18.0625 14.2858 18.0625 14.8447 17.8212 15.501Z" fill="black"/>
</g>
</svg>
